<?xml version="1.0" encoding="UTF-8"?>
<!DOCTYPE svg PUBLIC "-//W3C//DTD SVG 1.1//EN" "http://www.w3.org/Graphics/SVG/1.1/DTD/svg11.dtd">
<svg xmlns="http://www.w3.org/2000/svg" version="1.1" width="650px" height="650px" style="shape-rendering:geometricPrecision; text-rendering:geometricPrecision; image-rendering:optimizeQuality; fill-rule:evenodd; clip-rule:evenodd" xmlns:xlink="http://www.w3.org/1999/xlink">
<g><path style="opacity:1" fill="#f26f3f" d="M 219.5,93.5 C 166.361,93.8628 117.361,108.03 72.5,136C 59.7795,144.55 48.4462,154.717 38.5,166.5C 27.9476,172.882 19.1143,181.215 12,191.5C 16.5414,152.585 32.708,119.419 60.5,92C 105.739,56.6057 153.405,53.2724 203.5,82C 209.294,85.309 214.627,89.1423 219.5,93.5 Z"/></g>
<g><path style="opacity:1" fill="#05568e" d="M 587.5,142.5 C 555.917,142.981 524.583,140.481 493.5,135C 479.822,132.663 466.822,128.329 454.5,122C 452.195,120.374 450.195,118.54 448.5,116.5C 467.021,92.0846 491.688,81.5846 522.5,85C 555.617,91.2868 577.284,110.454 587.5,142.5 Z"/></g>
<g><path style="opacity:0.998" fill="#fcab59" d="M 219.5,93.5 C 224.159,96.1684 228.492,99.3351 232.5,103C 249.167,119.667 265.833,136.333 282.5,153C 275.167,163.333 267.833,173.667 260.5,184C 271.309,178.587 281.976,172.587 292.5,166C 293.5,165.333 294.5,165.333 295.5,166C 329.667,200.167 363.833,234.333 398,268.5C 395.49,280.873 392.823,293.206 390,305.5C 396.969,297.53 404.302,289.864 412,282.5C 418.667,289.167 425.333,295.833 432,302.5C 432.333,253.167 432.667,203.833 433,154.5C 434.642,140.239 439.809,127.573 448.5,116.5C 450.195,118.54 452.195,120.374 454.5,122C 466.822,128.329 479.822,132.663 493.5,135C 524.583,140.481 555.917,142.981 587.5,142.5C 588.749,146.734 589.582,151.067 590,155.5C 590.833,184.839 590.667,214.172 589.5,243.5C 581.657,247.922 573.657,252.088 565.5,256C 573.551,260.183 581.884,263.683 590.5,266.5C 590.5,312.167 590.5,357.833 590.5,403.5C 590.425,441.647 575.425,472.313 545.5,495.5C 518.712,501.746 492.712,499.246 467.5,488C 443.84,476.334 422.84,461.001 404.5,442C 416.686,436.409 429.02,431.075 441.5,426C 424.124,425.874 406.791,426.207 389.5,427C 349.667,387.167 309.833,347.333 270,307.5C 269.544,306.256 270.044,305.423 271.5,305C 283.241,301.197 294.908,297.197 306.5,293C 290.503,294 274.503,295 258.5,296C 242.333,279.833 226.167,263.667 210,247.5C 209.5,306.499 209.333,365.499 209.5,424.5C 200.42,425.883 191.42,427.716 182.5,430C 189.938,439.767 196.104,450.267 201,461.5C 209.258,472.062 211.924,484.062 209,497.5C 208.368,505.169 206.535,512.502 203.5,519.5C 165.983,518.578 128.983,522.411 92.5,531C 84.5216,533.491 76.8549,536.657 69.5,540.5C 59.8747,528.569 54.0413,514.902 52,499.5C 51.3333,454.833 51.3333,410.167 52,365.5C 56.0156,361.652 59.8489,357.652 63.5,353.5C 59.6667,346.5 55.8333,339.5 52,332.5C 51.8333,275.497 51.3333,218.497 50.5,161.5C 46.4787,163.179 42.4787,164.846 38.5,166.5C 48.4462,154.717 59.7795,144.55 72.5,136C 117.361,108.03 166.361,93.8628 219.5,93.5 Z"/></g>
<g><path style="opacity:1" fill="#f26f3f" d="M 545.5,495.5 C 575.425,472.313 590.425,441.647 590.5,403.5C 611.861,399.57 629.028,388.903 642,371.5C 637.898,407.866 623.398,439.366 598.5,466C 583.2,479.986 565.534,489.819 545.5,495.5 Z"/></g>
<g><path style="opacity:1" fill="#47bcff" d="M 588.5,484.5 C 591.243,520.8 575.91,546.967 542.5,563C 505.072,576.074 473.572,567.574 448,537.5C 436.972,522.588 432.139,505.921 433.5,487.5C 468.227,513.745 506.56,520.912 548.5,509C 563.67,503.594 577.003,495.427 588.5,484.5 Z"/></g>
<g><path style="opacity:1" fill="#05568e" d="M 203.5,519.5 C 188.039,553.743 161.372,570.243 123.5,569C 101.641,566.573 83.6408,557.073 69.5,540.5C 76.8549,536.657 84.5216,533.491 92.5,531C 128.983,522.411 165.983,518.578 203.5,519.5 Z"/></g>
</svg>
